<svg width="16" height="14" viewBox="0 0 16 14" fill="none" xmlns="http://www.w3.org/2000/svg">
<path d="M0 12.9468V12.0555H3.86726H7.73451L7.813 12.1836C7.85617 12.2541 7.96663 12.4402 8.05846 12.5973C8.15029 12.7543 8.23608 12.8793 8.2491 12.875C8.26212 12.8706 8.38438 12.6847 8.52079 12.4619L8.7688 12.0567L12.3844 12.0561L16 12.0555V12.9468V13.8382H8H0V12.9468ZM7.77285 13.2178C7.74458 13.1707 7.65125 13.0156 7.56546 12.873L7.40947 12.6139L3.97214 12.6132L0.534819 12.6126V12.958V13.3034H4.17954H7.82425L7.77285 13.2178ZM15.4652 12.958V12.6126H12.2609H9.05666L8.89621 12.8856C8.80797 13.0357 8.71464 13.1911 8.68881 13.231L8.64186 13.3034H12.0535H15.4652V12.958ZM0 10.5847V9.69336H3.1387H6.27741L6.43936 9.96563C6.52843 10.1154 6.77061 10.5106 6.97753 10.8439C7.18446 11.1772 7.35376 11.4558 7.35376 11.463C7.35376 11.4702 5.69916 11.4761 3.67688 11.4761H0V10.5847ZM6.36688 10.9357C6.36074 10.9204 6.29198 10.8058 6.21407 10.681C6.13617 10.5563 6.04661 10.4109 6.01505 10.3579L5.95769 10.2616L3.25182 10.2634L0.545961 10.2652L0.539824 10.6144L0.533686 10.9636H3.45586C5.78468 10.9636 6.37576 10.9579 6.36688 10.9357ZM9.13942 11.426C9.1885 11.3341 9.59591 10.6686 9.90005 10.1836L10.2005 9.70451L13.1002 9.69885L16 9.6932V10.5846V11.4761H12.5563H9.11264L9.13942 11.426ZM15.4652 10.6182C15.4652 10.3571 15.4584 10.2725 15.4373 10.2719C15.4111 10.2711 10.5467 10.2716 10.514 10.2724C10.5004 10.2727 10.0947 10.9331 10.0947 10.9548C10.0947 10.9596 11.3031 10.9636 12.7799 10.9636H15.4652V10.6182ZM8.5571 7.93669V4.67944H8.23406H7.91101L7.90537 7.92415L7.89972 11.1689L7.6048 10.693L7.30988 10.217L7.30954 7.44824L7.30921 4.67944H7.00837H6.70754V6.90785C6.70754 8.13348 6.70002 9.13609 6.69082 9.13587C6.68163 9.13565 6.60942 9.03287 6.53036 8.90746C6.29741 8.53793 5.60246 7.41222 5.40086 7.07785L5.2145 6.76874V5.10247V3.43619L5.92202 3.43943L6.62954 3.44267V3.07498V2.70729L6.45127 2.69615C6.28149 2.68554 6.25751 2.67691 5.94803 2.515C5.59757 2.33166 5.32592 2.16788 5.32592 2.13993C5.32592 2.13036 5.39862 2.11553 5.48748 2.10698C6.01458 2.05629 6.56677 1.8552 7.06771 1.53152C7.3892 1.32379 7.86958 0.891553 7.97068 0.719035C8.02108 0.633036 8.02975 0.588161 8.03975 0.361629C8.05001 0.129092 8.05644 0.097308 8.10258 0.0511712C8.17259 -0.0188437 8.27347 -0.0167598 8.33061 0.055882C8.36465 0.0991611 8.37804 0.161583 8.38915 0.328862C8.41086 0.655789 8.43659 0.707138 8.72248 0.994148C9.35595 1.63009 10.1267 2.01759 10.9364 2.10717C11.0133 2.11568 11.0815 2.13121 11.088 2.1417C11.1043 2.16813 10.855 2.32454 10.4847 2.52019C10.1819 2.68017 10.1672 2.68534 9.9833 2.69615L9.79389 2.70729L9.78776 3.06941L9.78164 3.43153H10.5064H11.2312L11.235 4.68501C11.2371 5.37442 11.2386 6.1244 11.2383 6.35162L11.2379 6.76475L10.8147 7.46583C10.198 8.48742 9.85169 9.05226 9.80369 9.11473C9.76215 9.16878 9.76145 9.1328 9.76096 6.92456L9.76047 4.67944H9.45963H9.1588V7.43468V10.1899L8.85796 10.6919L8.55713 11.1939L8.5571 7.93669ZM6.21727 5.67108V3.94406H5.961H5.70473L5.70522 5.25325C5.70569 6.47306 5.70849 6.56857 5.74643 6.65209C5.79006 6.74813 6.19205 7.3981 6.20782 7.3981C6.21302 7.3981 6.21727 6.62094 6.21727 5.67108ZM10.5109 7.00256L10.7521 6.60701L10.7582 5.27554L10.7642 3.94406H10.5075H10.2507L10.2495 4.06105C10.2481 4.19594 10.2482 5.97764 10.2497 6.82428C10.2503 7.13988 10.255 7.3981 10.2602 7.3981C10.2654 7.3981 10.3782 7.22011 10.5109 7.00256ZM9.14581 3.44028C9.17596 3.42871 9.18106 3.37401 9.18106 3.06145V2.69615H8.23398H7.28691V3.06198C7.28691 3.3338 7.29407 3.4307 7.31476 3.43905C7.35492 3.45526 9.10372 3.45643 9.14581 3.44028ZM9.43621 2.18745C9.42457 2.17731 9.32981 2.11252 9.22563 2.04347C8.97111 1.8748 8.72072 1.67198 8.45458 1.41893L8.23385 1.20905L8.03336 1.39829C7.78727 1.63057 7.45699 1.89801 7.22624 2.05186C7.13091 2.11541 7.0434 2.17607 7.03175 2.18665C7.01984 2.19748 7.54565 2.2059 8.23398 2.2059C8.90685 2.2059 9.44785 2.1976 9.43621 2.18745ZM2.12256 9.14172L0 9.13604V8.27821V7.42038L2.44568 7.42093L4.89136 7.42147L5.35237 8.17301C5.60593 8.58637 5.83993 8.97219 5.87238 9.03041L5.93139 9.13626L5.24424 9.1382C4.86632 9.13926 4.48691 9.14177 4.40111 9.14377C4.31532 9.14577 3.28997 9.14485 2.12256 9.14172ZM4.90578 8.6279L4.96477 8.61258L4.75829 8.27832L4.55181 7.94406L2.54332 7.93837L0.534819 7.93268V8.27672V8.62077L0.5961 8.62782C0.723256 8.64245 4.84943 8.64251 4.90578 8.6279ZM12.0049 9.13626L10.539 9.12512L10.844 8.62373C11.0118 8.34796 11.2436 7.9644 11.3592 7.77136L11.5694 7.42038H13.7847H16V8.27796V9.13553L14.7354 9.14147C14.0398 9.14473 12.8111 9.14239 12.0049 9.13626ZM15.3816 8.6251L15.4652 8.62373V8.27832V7.93292H13.6855H11.9057L11.7157 8.27275L11.5256 8.61258L11.6291 8.62649C11.7057 8.63678 14.7403 8.63566 15.3816 8.6251Z" fill="#640F0E"/>
</svg>
