<svg width="1785" height="621" viewBox="0 0 1785 621" fill="none" xmlns="http://www.w3.org/2000/svg">
<path d="M0 580.99V540.99H173.543H347.086L350.609 546.74C352.546 549.902 357.502 558.256 361.623 565.304C365.744 572.351 369.594 577.958 370.178 577.764C370.763 577.569 376.249 569.227 382.37 559.226L393.5 541.043L555.75 541.016L718 540.99V580.99V620.99H359H0V580.99ZM348.807 593.15C347.538 591.037 343.35 584.075 339.5 577.678L332.5 566.047L178.25 566.018L24 565.99V581.49V596.99H187.557H351.113L348.807 593.15ZM694 581.49V565.99H550.209H406.418L399.218 578.24C395.258 584.977 391.069 591.952 389.911 593.74L387.804 596.99H540.902H694V581.49ZM0 474.99V434.99H140.849H281.699L288.966 447.208C292.963 453.928 303.831 471.663 313.117 486.62C322.403 501.576 330 514.078 330 514.402C330 514.725 255.75 514.99 165 514.99H0V474.99ZM285.714 490.74C285.438 490.052 282.353 484.909 278.857 479.311C275.36 473.712 271.342 467.187 269.926 464.811L267.351 460.49L145.926 460.571L24.5 460.653L24.2246 476.321L23.9492 491.99H155.082C259.588 491.99 286.112 491.736 285.714 490.74ZM410.131 512.74C412.334 508.616 430.617 478.755 444.265 456.99L457.746 435.49L587.873 435.236L718 434.982V474.986V514.99H563.465H408.93L410.131 512.74ZM694 476.49C694 464.777 693.695 460.98 692.75 460.951C691.574 460.915 473.285 460.936 471.816 460.973C471.208 460.988 453 490.624 453 491.598C453 491.814 507.225 491.99 573.5 491.99H694V476.49ZM1395.95 544.929C1378.25 542.323 1364.57 531.629 1360.35 517.107C1358.02 509.103 1358.88 497.014 1362.24 490.45C1367.37 480.427 1378.41 473.093 1393.5 469.685C1403.94 467.326 1406.41 467.013 1426.52 465.501C1436.68 464.738 1445.5 463.799 1446.12 463.415C1446.86 462.956 1447.08 460.367 1446.76 455.85C1445.83 442.826 1439.75 435.609 1427 432.385C1419.23 430.421 1407.64 430.921 1401.24 433.499C1396.88 435.256 1388 444.039 1388 446.598C1388 447.502 1386.86 447.988 1384.75 447.986C1380.78 447.981 1363.99 445.314 1363.25 444.57C1362.2 443.525 1366.24 434.863 1369.98 430.133C1378.65 419.17 1394.53 412.279 1413.21 411.374C1440.58 410.048 1459.55 418.985 1468.11 437.249L1471.5 444.49L1471.79 494.24L1472.09 543.99H1460.68H1449.28L1448.65 538.74C1448.3 535.852 1448.01 531.923 1448.01 530.008L1448 526.526L1445.61 530.048C1437.91 541.379 1416.14 547.902 1395.95 544.929H1395.95ZM1425.14 523.985C1433.52 521.344 1440.23 516.27 1443.97 509.748C1446.83 504.756 1446.98 503.919 1446.99 493.205L1447 481.921L1442.25 482.485C1439.64 482.795 1429.99 483.707 1420.81 484.513C1401.74 486.184 1394.83 488.203 1389.55 493.642C1385.14 498.186 1383.38 504.967 1385.03 511.12C1386.49 516.595 1393.2 523.322 1398.64 524.76C1405.43 526.56 1418.16 526.188 1425.14 523.985ZM1539 543.386C1539 552.211 1524.95 538.038 1519.45 532.539C1513.8 526.885 1510.91 521.562 1508.31 511.99C1506.74 506.225 1506.54 500.288 1506.52 459.49L1506.5 413.49L1518.75 413.209L1531 412.928V450.887C1531 490.683 1531.76 501.204 1535.2 509.231C1537.75 515.154 1543.56 520.507 1549.19 522.104C1555.52 523.896 1566.61 523.611 1572.99 521.493C1580.45 519.015 1588.77 510.739 1592.08 502.482C1594.48 496.533 1594.5 496.191 1594.8 454.709L1595.1 412.929L1607.3 413.209L1619.5 413.49L1619.76 478.74L1620.01 543.99H1608.01H1596V534.29V524.591L1591.12 530.04C1585.23 536.615 1577.58 541.368 1569.54 543.447C1562.05 545.385 1539 535.776 1539 543.386ZM1750.08 543.461C1740.45 540.767 1733.81 535.21 1729.8 526.49C1727.54 521.572 1727.49 520.77 1727 477.49L1726.5 433.49L1715.75 433.206L1705 432.922V422.956V412.99H1716H1727V397.142V381.295L1738.65 380.629C1745.06 380.263 1750.56 380.212 1750.86 380.516C1751.16 380.82 1751.52 388.139 1751.65 396.779L1751.9 412.49L1766.95 412.766L1782 413.042V422.99V432.938L1766.93 433.214L1751.86 433.49L1751.96 472.301C1752.08 515.73 1752.27 517.14 1758.64 521.078C1761.58 522.891 1763.14 523.131 1769.29 522.709C1773.26 522.436 1777.42 521.911 1778.53 521.542C1780.37 520.934 1780.78 521.682 1782.78 529.321C1785.8 540.824 1785.73 541.407 1781.25 542.916C1775.29 544.921 1756.47 545.25 1750.08 543.461ZM792 456.495V368.869L840.75 369.253C894.646 369.678 895.055 369.72 909.564 376.424C923.469 382.848 932.039 393.631 933.859 406.99C936.375 425.47 929.277 440.563 914.198 448.796L908.895 451.69L917.434 455.787C927.754 460.739 934.051 466.803 938.413 475.99C941.113 481.676 941.543 483.766 941.839 492.677C942.377 508.839 938.865 518.099 928.465 527.934C922.21 533.85 913.785 538.026 901.726 541.189C893.932 543.233 890.833 543.366 842.75 543.734L792 544.121V456.495ZM888.5 509.678C900.539 504.293 904.907 489.62 897.277 480.193C890.681 472.044 881.693 470.008 852.25 469.997L832 469.99V491.063V512.137L858.25 511.802C880.833 511.514 885.059 511.217 888.5 509.678ZM877.483 438.452C885.371 436.398 889.104 433.929 891.931 428.899C897.226 419.478 893.913 408.586 884.316 403.861C879.729 401.602 878.371 401.474 855.75 401.16L832 400.831V420.41V439.99H851.79C866.369 439.99 873.134 439.585 877.483 438.452ZM966 456.49V368.99H986.5H1007V456.49V543.99H986.5H966V456.49ZM1083.63 541.74C1083.3 540.502 1083.02 508.327 1083.01 470.24L1083 400.99H1055.5H1028V384.99V368.99H1104H1180V384.99V400.99H1152H1124V472.49V543.99H1104.12C1084.34 543.99 1084.23 543.978 1083.63 541.74ZM1259.12 542.218C1257.02 538.298 1236.14 485.36 1210.51 418.99C1202.12 397.265 1194.3 377.127 1193.14 374.24L1191.03 368.99H1205.54C1219.63 368.99 1220.07 369.054 1221.01 371.24C1221.54 372.477 1229.61 393.74 1238.95 418.49C1261.94 479.426 1273.32 508.194 1274.42 508.15C1274.92 508.13 1279.33 497.398 1284.21 484.302C1294.07 457.867 1315.51 401.454 1323.18 381.74L1328.14 368.99H1342.18C1355.13 368.99 1356.16 369.125 1355.56 370.74C1355.19 371.702 1349.08 387.115 1341.98 404.99C1334.87 422.865 1323.4 452.101 1316.49 469.96C1309.58 487.819 1300.23 511.779 1295.71 523.206L1287.5 543.981L1273.79 543.985C1261.68 543.989 1259.96 543.782 1259.12 542.218ZM1655.45 542.718C1655.17 541.985 1655.06 501.859 1655.22 453.55L1655.5 365.715L1667.93 365.665L1680.36 365.615V454.552V543.49L1668.16 543.771C1658.72 543.988 1655.85 543.751 1655.45 542.718L1655.45 542.718ZM384 356.159V209.99H369.503H355.007L354.753 355.596L354.5 501.203L341.265 479.846L328.031 458.49L328.015 334.24L328 209.99H314.5H301V309.99C301 364.99 300.662 409.982 300.25 409.972C299.838 409.962 296.597 405.35 293.049 399.722C282.596 383.14 251.41 332.623 242.363 317.618L234 303.747V228.973V154.199L265.75 154.344L297.5 154.49V137.99V121.49L289.5 120.99C281.881 120.514 280.805 120.126 266.917 112.861C251.19 104.633 239 97.2838 239 96.0294C239 95.5997 242.263 94.9344 246.25 94.5509C269.904 92.2758 294.683 83.2521 317.163 68.727C331.59 59.4052 353.147 40.0085 357.684 32.2667C359.945 28.4075 360.334 26.3937 360.783 16.2281C361.244 5.793 361.532 4.36669 363.603 2.2963C366.745 -0.845609 371.271 -0.752093 373.835 2.5077C375.363 4.44986 375.964 7.25103 376.463 14.7577C377.437 29.4285 378.591 31.7328 391.421 44.6124C419.847 73.1504 454.437 90.5395 490.772 94.5593C494.222 94.9409 497.283 95.6381 497.573 96.1086C498.306 97.2947 487.118 104.314 470.5 113.093C456.911 120.273 456.25 120.504 448 120.99L439.5 121.49L439.225 137.74L438.95 153.99H471.475H504L504.169 210.24C504.262 241.177 504.33 274.832 504.32 285.029L504.302 303.568L485.31 335.029C457.636 380.873 442.094 406.22 439.94 409.024C438.076 411.449 438.044 409.834 438.022 310.74L438 209.99H424.5H411V333.631V457.273L397.5 479.801L384 502.328V356.159ZM279 254.49V176.99H267.5H256L256.022 235.74C256.042 290.478 256.169 294.764 257.871 298.512C259.829 302.823 277.868 331.99 278.576 331.99C278.809 331.99 279 297.115 279 254.49ZM471.675 314.24L482.5 296.49L482.773 236.74L483.046 176.99H471.523H460L459.946 182.24C459.884 188.293 459.89 268.247 459.956 306.24C459.98 320.402 460.192 331.99 460.425 331.99C460.659 331.99 465.721 324.002 471.675 314.24ZM410.418 154.383C411.772 153.863 412 151.409 412 137.383V120.99H369.5H327V137.406C327 149.604 327.321 153.953 328.25 154.327C330.052 155.055 408.53 155.107 410.418 154.383ZM423.45 98.1619C422.927 97.7066 418.675 94.7991 414 91.7009C402.579 84.1316 391.342 75.0303 379.399 63.6745L369.494 54.2563L360.497 62.7483C349.454 73.1719 334.632 85.1733 324.277 92.0771C320 94.9291 316.072 97.6511 315.55 98.1261C315.015 98.6121 338.611 98.9898 369.5 98.9898C399.695 98.9898 423.972 98.6173 423.45 98.1619ZM95.25 410.235L0 409.98V371.485V332.99L109.75 333.014L219.5 333.038L240.188 366.764C251.566 385.313 262.067 402.627 263.523 405.24L266.171 409.99L235.336 410.077C218.376 410.125 201.35 410.237 197.5 410.327C193.65 410.416 147.638 410.375 95.25 410.235ZM220.147 387.177L222.794 386.49L213.528 371.49L204.263 356.49L114.131 356.234L24 355.979V371.418V386.857L26.75 387.173C32.4562 387.83 217.618 387.833 220.147 387.177ZM538.718 409.99L472.936 409.49L486.625 386.99C494.153 374.615 504.557 357.402 509.745 348.74L519.177 332.99H618.589H718V371.473V409.957L661.25 410.223C630.038 410.37 574.898 410.265 538.718 409.99ZM690.25 387.052L694 386.99V371.49V355.99H614.135H534.27L525.741 371.24L517.212 386.49L521.856 387.114C525.295 387.576 661.469 387.525 690.25 387.052Z" fill="#640F0E"/>
</svg>
